<svg height="512pt" viewBox="-24 0 511 512" width="512pt" xmlns="http://www.w3.org/2000/svg"><g fill="#59c7d3"><path d="m353.644531 427.3125c-1.039062 0-2.097656-.210938-3.113281-.660156-3.902344-1.71875-5.675781-6.28125-3.953125-10.183594l6.957031-15.792969c2.496094-5.667969 8.703125-8.816406 14.753906-7.488281l20.707032 4.546875c4.167968.917969 6.804687 5.039063 5.890625 9.207031-.917969 4.164063-5.03125 6.804688-9.207031 5.886719l-18.792969-4.128906-6.167969 14c-1.273438 2.890625-4.105469 4.613281-7.074219 4.613281zm0 0"/><path d="m383.695312 454.90625c-.921874 0-1.851562-.097656-2.785156-.304688l-16.851562-3.699218c-4.167969-.917969-6.804688-5.039063-5.886719-9.207032.914063-4.164062 5.023437-6.804687 9.203125-5.886718l14.9375 3.28125 7.988281-18.125c1.722657-3.90625 6.28125-5.675782 10.1875-3.957032 3.902344 1.722657 5.675781 6.28125 3.953125 10.1875l-8.777344 19.917969c-2.113281 4.796875-6.882812 7.792969-11.96875 7.792969zm0 0"/><path d="m111.339844 427.3125c-2.96875 0-5.800782-1.722656-7.074219-4.613281l-6.167969-14-18.796875 4.128906c-4.164062.917969-8.285156-1.71875-9.203125-5.886719-.914062-4.167968 1.722656-8.289062 5.890625-9.207031l20.707031-4.546875c6.050782-1.328125 12.253907 1.820312 14.753907 7.488281l6.957031 15.792969c1.722656 3.902344-.050781 8.464844-3.953125 10.183594-1.015625.449218-2.074219.660156-3.113281.660156zm0 0"/><path d="m81.285156 454.90625c-5.082031 0-9.851562-2.996094-11.96875-7.792969l-8.773437-19.917969c-1.722657-3.90625.046875-8.464843 3.953125-10.1875 3.90625-1.71875 8.464844.050782 10.1875 3.957032l7.984375 18.125 14.941406-3.28125c4.171875-.914063 8.289063 1.722656 9.203125 5.890625.917969 4.167969-1.71875 8.289062-5.886719 9.203125l-16.855469 3.703125c-.929687.203125-1.859374.300781-2.785156.300781zm0 0"/></g><path d="m388.589844 416.320312c-3.976563-7.832031-.851563-17.402343 6.980468-21.378906l27.945313-14.1875 14.398437 28.363282-27.941406 14.1875c-7.832031 3.976562-17.40625.847656-21.382812-6.984376zm0 0" fill="#dae5ea"/><path d="m429.148438 413.015625c11.644531 1.144531 22.011718-7.367187 23.15625-19.011719l9.519531-96.832031-42.167969-4.148437-9.519531 96.835937c-1.144531 11.644531 7.367187 22.011719 19.011719 23.15625zm0 0" fill="#c9d1d3"/><path d="m454.492188 321.316406c10.992187-8.1875 13.261718-23.734375 5.074218-34.726562l-61.859375-82.890625-39.796875 29.652343 61.859375 82.890626c8.1875 10.988281 23.734375 13.261718 34.722657 5.074218zm0 0" fill="#dae5ea"/><path d="m418.90625 195.546875-139.464844.636719v84.402344l114.957032-23.394532c27.425781-8.726562 38.453124-36.46875 24.507812-61.644531zm0 0" fill="#465058"/><path d="m76.394531 416.320312c3.976563-7.832031.847657-17.402343-6.984375-21.378906l-27.941406-14.1875-14.398438 28.363282 27.941407 14.1875c7.832031 3.976562 17.40625.847656 21.382812-6.984376zm0 0" fill="#dae5ea"/><path d="m35.835938 413.015625c-11.644532 1.144531-22.011719-7.367187-23.15625-19.011719l-9.523438-96.832031 42.171875-4.148437 9.519531 96.835937c1.144532 11.644531-7.367187 22.011719-19.011718 23.15625zm0 0" fill="#c9d1d3"/><path d="m10.492188 321.316406c-10.992188-8.1875-13.261719-23.734375-5.074219-34.726562l61.859375-82.890625 39.796875 29.652343-61.859375 82.890626c-8.1875 10.988281-23.734375 13.261718-34.722656 5.074218zm0 0" fill="#dae5ea"/><path d="m46.074219 195.546875 139.46875.636719v84.402344l-114.957031-23.394532c-27.425782-8.726562-38.453126-36.46875-24.511719-61.644531zm0 0" fill="#465058"/><path d="m232.492188 512c-26.414063 0-47.828126-21.414062-47.828126-47.828125v-91.332031h95.65625v91.332031c0 26.414063-21.414062 47.828125-47.828124 47.828125zm0 0" fill="#465058"/><path d="m220.71875 372.839844v131.613281c0 2.027344-.128906 4.027344-.371094 5.988281 3.878906 1.019532 7.949219 1.558594 12.144532 1.558594 26.414062 0 47.828124-21.414062 47.828124-47.828125v-91.332031zm0 0" fill="#323e44"/><path d="m207.292969 131.449219h50.398437v98.328125h-50.398437zm0 0" fill="#64717a"/><path d="m302.03125 161.355469h-139.078125c-24.09375 0-43.625-19.53125-43.625-43.625v-74.109375c.003906-24.089844 19.53125-43.621094 43.625-43.621094h139.078125c24.089844 0 43.621094 19.53125 43.621094 43.621094v74.113281c0 24.089844-19.53125 43.621094-43.621094 43.621094zm0 0" fill="#dae5ea"/><path d="m302.03125 0h-15.980469v161.355469h15.980469c24.089844 0 43.621094-19.53125 43.621094-43.625v-74.109375c0-24.089844-19.53125-43.621094-43.621094-43.621094zm0 0" fill="#c9d1d3"/><path d="m302.710938 32.277344h-140.4375c-8.574219 0-15.523438 6.949218-15.523438 15.523437v110.433594c5.011719 2.003906 10.476562 3.121094 16.203125 3.121094h139.078125c5.726562 0 11.191406-1.117188 16.203125-3.121094v-110.433594c0-8.574219-6.953125-15.523437-15.523437-15.523437zm0 0" fill="#59c7d3"/><path d="m302.710938 32.277344h-44.078126v129.078125h43.398438c5.726562 0 11.191406-1.117188 16.203125-3.121094v-110.433594c0-8.574219-6.953125-15.523437-15.523437-15.523437zm0 0" fill="#44b6bc"/><path d="m308.019531 418.789062h-151.054687c-10.511719 0-19.40625-7.765624-20.816406-18.183593l-24.476563-180.644531c-1.707031-12.605469 8.09375-23.824219 20.8125-23.824219h200.015625c12.71875 0 22.519531 11.21875 20.8125 23.824219l-24.476562 180.644531c-1.410157 10.417969-10.304688 18.183593-20.816407 18.183593zm0 0" fill="#dae5ea"/><path d="m332.5 196.136719h-36.476562l-30.167969 222.652343h42.167969c10.507812 0 19.402343-7.765624 20.8125-18.183593l24.476562-180.644531c1.707031-12.605469-8.09375-23.824219-20.8125-23.824219zm0 0" fill="#c9d1d3"/><path d="m283.8125 319.6875h-102.640625c-6.125 0-11.089844-4.964844-11.089844-11.089844v-56.019531c0-6.128906 4.964844-11.09375 11.089844-11.09375h102.640625c6.125 0 11.089844 4.96875 11.089844 11.09375v56.019531c0 6.125-4.964844 11.089844-11.089844 11.089844zm0 0" fill="#e3f6ff"/><path d="m283.8125 241.484375h-48.511719v78.203125h48.511719c6.125 0 11.089844-4.96875 11.089844-11.09375v-56.019531c0-6.125-4.964844-11.089844-11.089844-11.089844zm0 0" fill="#cee8f2"/><path d="m263.78125 259.082031h-62.578125c-4.265625 0-7.726563 3.457031-7.726563 7.726563 0 4.265625 3.460938 7.726562 7.726563 7.726562h62.578125c4.269531 0 7.726562-3.460937 7.726562-7.726562s-3.460937-7.726563-7.726562-7.726563zm0 0" fill="#59c7d3"/><path d="m263.78125 286.636719h-62.578125c-4.265625 0-7.726563 3.460937-7.726563 7.726562s3.460938 7.726563 7.726563 7.726563h62.578125c4.269531 0 7.726562-3.460938 7.726562-7.726563s-3.460937-7.726562-7.726562-7.726562zm0 0" fill="#59c7d3"/><path d="m280.21875 69.433594h-47.726562c-4.265626 0-7.726563 3.460937-7.726563 7.726562s3.460937 7.726563 7.726563 7.726563h47.726562c4.269531 0 7.726562-3.460938 7.726562-7.726563s-3.457031-7.726562-7.726562-7.726562zm0 0" fill="#e3f6ff"/><path d="m196.449219 69.433594h-11.683594c-4.269531 0-7.726563 3.460937-7.726563 7.726562s3.457032 7.726563 7.726563 7.726563h11.683594c4.269531 0 7.726562-3.460938 7.726562-7.726563.003907-4.265625-3.457031-7.726562-7.726562-7.726562zm0 0" fill="#e3f6ff"/></svg>